<svg version="1.1" id="Layer_1" xmlns="http://www.w3.org/2000/svg" xmlns:xlink="http://www.w3.org/1999/xlink" x="0px" y="0px"
	 width="100%" viewBox="0 0 560 446" enable-background="new 0 0 560 446" xml:space="preserve">
<path fill="#010101" opacity="1.000000" stroke="none" 
	d="
M348.000000,447.000000 
	C232.000031,447.000000 116.500053,447.000000 1.000062,447.000000 
	C1.000041,298.333405 1.000041,149.666794 1.000021,1.000142 
	C187.666565,1.000095 374.333130,1.000095 560.999756,1.000047 
	C560.999878,149.666519 560.999878,298.333038 560.999939,446.999786 
	C490.166656,447.000000 419.333344,447.000000 348.000000,447.000000 
M286.912567,70.918030 
	C286.763184,70.776840 286.613770,70.635651 286.924011,69.963432 
	C318.279968,51.508442 352.275574,40.297085 387.918640,33.606590 
	C348.097382,27.779011 265.699738,51.424358 250.291611,72.496666 
	C256.515991,71.805817 262.923676,71.094620 269.331360,70.383423 
	C269.579590,70.953682 269.827820,71.523933 270.076019,72.094193 
	C269.142578,72.714607 268.192139,73.311081 267.278320,73.959190 
	C259.952759,79.154694 252.593384,84.304382 245.349182,89.611198 
	C243.974014,90.618591 242.172363,92.209595 242.092224,93.618080 
	C241.737366,99.855225 241.938599,106.124023 241.938599,113.573936 
	C285.560394,89.273735 331.290955,75.113640 379.019623,66.375061 
	C371.883209,65.238625 364.833771,64.671394 357.774567,64.493538 
	C334.027100,63.895226 310.604218,66.788681 286.912567,70.918030 
M194.927643,407.370850 
	C278.128296,389.898834 362.019409,383.890991 446.839783,393.313110 
	C446.949860,392.599182 447.059937,391.885223 447.169983,391.171265 
	C429.875946,384.669250 412.581909,378.167236 395.206451,371.634583 
	C399.667908,366.329437 404.715546,361.386963 408.524780,355.625732 
	C433.426575,317.963196 436.713226,277.286499 423.175476,235.137756 
	C413.769196,205.852066 395.607758,182.209915 371.414978,163.268448 
	C341.735596,140.031265 308.041229,126.229393 270.685944,121.967278 
	C257.685394,120.483963 244.444183,120.937241 231.311661,120.895096 
	C227.642670,120.883316 226.041016,120.158409 225.466675,116.291573 
	C224.123520,107.248558 221.704193,98.339996 220.762924,89.268837 
	C219.463074,76.742172 220.696365,64.501656 230.164719,54.802685 
	C235.319809,49.522038 241.550522,47.017746 248.693237,50.254353 
	C252.048691,51.774822 253.625793,50.685558 255.795242,48.338882 
	C263.918854,39.551746 272.283173,30.987236 280.551971,22.334198 
	C281.401978,21.444656 282.216583,20.521296 283.047607,19.613626 
	C282.779572,19.255737 282.511536,18.897848 282.243500,18.539959 
	C236.688461,29.669064 198.486450,52.942932 167.083176,88.880981 
	C179.838776,98.239510 192.098038,107.233879 204.779739,116.538185 
	C195.018677,126.471718 184.968628,135.361649 177.705826,147.504639 
	C187.291611,148.713776 195.671432,146.790115 204.012161,144.593689 
	C222.865509,139.628906 241.727707,134.598221 261.473419,135.407639 
	C267.826630,135.668060 274.148529,136.693680 280.484741,137.369217 
	C280.467804,137.803223 280.450836,138.237244 280.433899,138.671249 
	C254.791916,142.178543 234.659027,155.693954 216.949768,173.526871 
	C198.823395,191.779831 181.216965,227.340210 184.907501,238.014771 
	C185.232468,237.977264 185.737839,238.057816 185.852448,237.882690 
	C186.485077,236.915802 187.108673,235.925171 187.579636,234.872986 
	C198.650162,210.141830 215.863113,190.746872 238.876999,176.614319 
	C256.650177,165.700058 275.957214,159.468994 296.933472,162.783798 
	C327.645599,167.637131 350.768555,184.145035 365.369904,211.634674 
	C382.450470,243.791855 383.733887,276.447357 366.562683,309.180298 
	C353.036591,334.964661 331.051422,350.388123 303.842834,358.196564 
	C277.797821,365.671082 251.218689,371.262238 225.017242,378.219452 
	C193.421783,386.609009 162.662949,397.311981 134.254166,413.889984 
	C127.450302,417.860352 120.694824,421.913696 113.917099,425.928894 
	C114.080261,426.207855 114.243431,426.486847 114.406593,426.765808 
	C140.969223,420.350922 167.531860,413.936005 194.927643,407.370850 
M280.070801,245.231323 
	C279.328094,234.562592 278.585388,223.893845 277.832581,213.079941 
	C288.920837,214.444092 292.742065,218.180298 294.286957,227.894501 
	C294.606689,229.905029 295.514923,232.306946 296.980133,233.560333 
	C301.562378,237.480148 307.050629,238.691147 312.844452,236.648300 
	C318.611237,234.614960 321.647858,230.178909 322.062622,224.189148 
	C322.603607,216.376602 319.547302,209.837677 313.939209,204.562515 
	C305.459656,196.586349 295.011414,192.901230 283.666595,191.857864 
	C278.978485,191.426697 274.847321,191.368835 275.916260,184.356262 
	C269.006836,185.636978 262.668640,186.720367 256.391693,188.085464 
	C255.562378,188.265823 254.365128,189.993805 254.499298,190.815460 
	C255.149063,194.795044 252.752563,195.738846 249.721375,197.035126 
	C237.223206,202.379898 226.770874,210.313858 219.512054,222.074051 
	C207.039917,242.280380 216.082703,265.003357 239.010742,270.514618 
	C244.487625,271.831146 250.154724,272.584229 255.777771,272.980957 
	C259.265717,273.227051 260.160889,274.429871 260.280762,277.767181 
	C260.621277,287.249725 261.393890,296.716248 261.942993,306.192139 
	C262.062866,308.260895 261.960510,310.342529 261.960510,312.438263 
	C249.379913,311.800262 243.887451,307.397949 240.999344,295.826447 
	C240.018494,291.896606 238.419525,288.717285 234.380173,287.123535 
	C229.306885,285.121826 222.810120,286.314331 219.082611,290.149597 
	C215.246780,294.096313 214.312637,301.352875 217.038406,306.990021 
	C224.662048,322.756317 238.428741,330.121185 254.580612,333.882111 
	C262.462921,335.717499 262.540161,335.385803 265.236847,342.604645 
	C271.397827,342.112946 277.705078,341.765900 283.953949,340.963684 
	C285.051819,340.822723 286.888000,338.575958 286.699615,337.640808 
	C285.910187,333.721863 288.033234,332.899567 291.084412,331.930420 
	C305.698120,327.288666 317.689178,319.263214 325.119202,305.292419 
	C334.335358,287.963257 330.696655,269.071960 314.752380,261.018311 
	C306.558441,256.879395 296.693085,255.787674 287.441376,254.091507 
	C280.621704,252.841217 280.519470,253.398819 280.070801,245.231323 
M175.030258,203.613693 
	C184.336685,184.331909 197.918823,168.244873 212.744949,152.814926 
	C207.560623,155.107162 202.801254,157.886063 198.429779,161.179810 
	C156.774063,192.565842 134.518280,234.862839 129.652420,286.294464 
	C126.752563,316.945801 133.349457,345.891022 149.489639,372.364441 
	C154.884247,381.212738 155.011841,381.106903 164.411377,376.457397 
	C171.202515,373.098114 178.026749,369.805786 184.720169,366.540222 
	C184.497559,365.624359 184.497360,365.269592 184.336456,365.017303 
	C182.993622,362.912079 181.599701,360.839417 180.261078,358.731598 
	C168.203110,339.744598 160.756516,319.082062 158.098099,296.757324 
	C154.229156,264.267029 160.053986,233.468811 175.030258,203.613693 
z"/>
<path fill="#FAFAFA" opacity="1.000000" stroke="none" 
	d="
M194.511063,407.445984 
	C167.531860,413.936005 140.969223,420.350922 114.406593,426.765808 
	C114.243431,426.486847 114.080261,426.207855 113.917099,425.928894 
	C120.694824,421.913696 127.450302,417.860352 134.254166,413.889984 
	C162.662949,397.311981 193.421783,386.609009 225.017242,378.219452 
	C251.218689,371.262238 277.797821,365.671082 303.842834,358.196564 
	C331.051422,350.388123 353.036591,334.964661 366.562683,309.180298 
	C383.733887,276.447357 382.450470,243.791855 365.369904,211.634674 
	C350.768555,184.145035 327.645599,167.637131 296.933472,162.783798 
	C275.957214,159.468994 256.650177,165.700058 238.876999,176.614319 
	C215.863113,190.746872 198.650162,210.141830 187.579636,234.872986 
	C187.108673,235.925171 186.485077,236.915802 185.852448,237.882690 
	C185.737839,238.057816 185.232468,237.977264 184.907120,238.011459 
	C181.216965,227.340210 198.823395,191.779831 216.949768,173.526871 
	C234.659027,155.693954 254.791916,142.178543 280.433899,138.671249 
	C280.450836,138.237244 280.467804,137.803223 280.484741,137.369217 
	C274.148529,136.693680 267.826630,135.668060 261.473419,135.407639 
	C241.727707,134.598221 222.865509,139.628906 204.012161,144.593689 
	C195.671432,146.790115 187.291611,148.713776 177.705826,147.504639 
	C184.968628,135.361649 195.018677,126.471718 204.779739,116.538185 
	C192.098038,107.233879 179.838776,98.239510 167.083176,88.880981 
	C198.486450,52.942932 236.688461,29.669064 282.243500,18.539959 
	C282.511536,18.897848 282.779572,19.255737 283.047607,19.613626 
	C282.216583,20.521296 281.401978,21.444656 280.551971,22.334198 
	C272.283173,30.987236 263.918854,39.551746 255.795242,48.338882 
	C253.625793,50.685558 252.048691,51.774822 248.693237,50.254353 
	C241.550522,47.017746 235.319809,49.522038 230.164719,54.802685 
	C220.696365,64.501656 219.463074,76.742172 220.762924,89.268837 
	C221.704193,98.339996 224.123520,107.248558 225.466675,116.291573 
	C226.041016,120.158409 227.642670,120.883316 231.311661,120.895096 
	C244.444183,120.937241 257.685394,120.483963 270.685944,121.967278 
	C308.041229,126.229393 341.735596,140.031265 371.414978,163.268448 
	C395.607758,182.209915 413.769196,205.852066 423.175476,235.137756 
	C436.713226,277.286499 433.426575,317.963196 408.524780,355.625732 
	C404.715546,361.386963 399.667908,366.329437 395.206451,371.634583 
	C412.581909,378.167236 429.875946,384.669250 447.169983,391.171265 
	C447.059937,391.885223 446.949860,392.599182 446.839783,393.313110 
	C362.019409,383.890991 278.128296,389.898834 194.511063,407.445984 
z"/>
<path fill="#F9F9F9" opacity="1.000000" stroke="none" 
	d="
M280.098907,245.694778 
	C280.519470,253.398819 280.621704,252.841217 287.441376,254.091507 
	C296.693085,255.787674 306.558441,256.879395 314.752380,261.018311 
	C330.696655,269.071960 334.335358,287.963257 325.119202,305.292419 
	C317.689178,319.263214 305.698120,327.288666 291.084412,331.930420 
	C288.033234,332.899567 285.910187,333.721863 286.699615,337.640808 
	C286.888000,338.575958 285.051819,340.822723 283.953949,340.963684 
	C277.705078,341.765900 271.397827,342.112946 265.236847,342.604645 
	C262.540161,335.385803 262.462921,335.717499 254.580612,333.882111 
	C238.428741,330.121185 224.662048,322.756317 217.038406,306.990021 
	C214.312637,301.352875 215.246780,294.096313 219.082611,290.149597 
	C222.810120,286.314331 229.306885,285.121826 234.380173,287.123535 
	C238.419525,288.717285 240.018494,291.896606 240.999344,295.826447 
	C243.887451,307.397949 249.379913,311.800262 261.960510,312.438263 
	C261.960510,310.342529 262.062866,308.260895 261.942993,306.192139 
	C261.393890,296.716248 260.621277,287.249725 260.280762,277.767181 
	C260.160889,274.429871 259.265717,273.227051 255.777771,272.980957 
	C250.154724,272.584229 244.487625,271.831146 239.010742,270.514618 
	C216.082703,265.003357 207.039917,242.280380 219.512054,222.074051 
	C226.770874,210.313858 237.223206,202.379898 249.721375,197.035126 
	C252.752563,195.738846 255.149063,194.795044 254.499298,190.815460 
	C254.365128,189.993805 255.562378,188.265823 256.391693,188.085464 
	C262.668640,186.720367 269.006836,185.636978 275.916260,184.356262 
	C274.847321,191.368835 278.978485,191.426697 283.666595,191.857864 
	C295.011414,192.901230 305.459656,196.586349 313.939209,204.562515 
	C319.547302,209.837677 322.603607,216.376602 322.062622,224.189148 
	C321.647858,230.178909 318.611237,234.614960 312.844452,236.648300 
	C307.050629,238.691147 301.562378,237.480148 296.980133,233.560333 
	C295.514923,232.306946 294.606689,229.905029 294.286957,227.894501 
	C292.742065,218.180298 288.920837,214.444092 277.832581,213.079941 
	C278.585388,223.893845 279.328094,234.562592 280.098907,245.694778 
M285.383575,276.068390 
	C284.401398,276.916565 282.684448,277.685944 282.583344,278.628601 
	C282.340332,280.894531 282.885773,283.239441 283.058411,285.556549 
	C283.658386,293.609344 284.235107,301.663879 284.876953,310.491821 
	C292.479462,306.978302 298.117828,302.578400 301.071564,295.514374 
	C304.158783,288.131042 301.882782,282.489014 294.661224,279.082916 
	C291.982971,277.819733 289.020020,277.160156 285.383575,276.068390 
M244.181412,244.281128 
	C248.495407,246.699234 252.809418,249.117355 257.123413,251.535461 
	C257.592377,251.080597 258.061340,250.625732 258.530273,250.170868 
	C257.715363,238.545197 256.900421,226.919525 256.085480,215.293854 
	C255.615524,214.952255 255.145554,214.610657 254.675598,214.269058 
	C250.850693,217.466339 246.502426,220.218307 243.318176,223.960693 
	C237.949814,230.270050 238.410553,237.672226 244.181412,244.281128 
z"/>
<path fill="#F8F8F8" opacity="1.000000" stroke="none" 
	d="
M174.844666,203.939056 
	C160.053986,233.468811 154.229156,264.267029 158.098099,296.757324 
	C160.756516,319.082062 168.203110,339.744598 180.261078,358.731598 
	C181.599701,360.839417 182.993622,362.912079 184.336456,365.017303 
	C184.497360,365.269592 184.497559,365.624359 184.720169,366.540222 
	C178.026749,369.805786 171.202515,373.098114 164.411377,376.457397 
	C155.011841,381.106903 154.884247,381.212738 149.489639,372.364441 
	C133.349457,345.891022 126.752563,316.945801 129.652420,286.294464 
	C134.518280,234.862839 156.774063,192.565842 198.429779,161.179810 
	C202.801254,157.886063 207.560623,155.107162 212.744949,152.814926 
	C197.918823,168.244873 184.336685,184.331909 174.844666,203.939056 
z"/>
<path fill="#F4F4F4" opacity="1.000000" stroke="none" 
	d="
M287.351196,71.351547 
	C310.604218,66.788681 334.027100,63.895226 357.774567,64.493538 
	C364.833771,64.671394 371.883209,65.238625 379.019623,66.375061 
	C331.290955,75.113640 285.560394,89.273735 241.938599,113.573936 
	C241.938599,106.124023 241.737366,99.855225 242.092224,93.618080 
	C242.172363,92.209595 243.974014,90.618591 245.349182,89.611198 
	C252.593384,84.304382 259.952759,79.154694 267.278320,73.959190 
	C268.192139,73.311081 269.142578,72.714607 270.076019,72.094193 
	C269.827820,71.523933 269.579590,70.953682 269.331360,70.383423 
	C262.923676,71.094620 256.515991,71.805817 250.291611,72.496666 
	C265.699738,51.424358 348.097382,27.779011 387.918640,33.606590 
	C352.275574,40.297085 318.279968,51.508442 286.412903,70.382965 
	C286.384949,70.985519 286.868073,71.168533 287.351196,71.351547 
z"/>
<path fill="#0C0C0C" opacity="1.000000" stroke="none" 
	d="
M285.785248,276.146851 
	C289.020020,277.160156 291.982971,277.819733 294.661224,279.082916 
	C301.882782,282.489014 304.158783,288.131042 301.071564,295.514374 
	C298.117828,302.578400 292.479462,306.978302 284.876953,310.491821 
	C284.235107,301.663879 283.658386,293.609344 283.058411,285.556549 
	C282.885773,283.239441 282.340332,280.894531 282.583344,278.628601 
	C282.684448,277.685944 284.401398,276.916565 285.785248,276.146851 
z"/>
<path fill="#0C0C0C" opacity="1.000000" stroke="none" 
	d="
M243.901199,244.045563 
	C238.410553,237.672226 237.949814,230.270050 243.318176,223.960693 
	C246.502426,220.218307 250.850693,217.466339 254.675598,214.269058 
	C255.145554,214.610657 255.615524,214.952255 256.085480,215.293854 
	C256.900421,226.919525 257.715363,238.545197 258.530273,250.170868 
	C258.061340,250.625732 257.592377,251.080597 257.123413,251.535461 
	C252.809418,249.117355 248.495407,246.699234 243.901199,244.045563 
z"/>
<path fill="#010101" opacity="1.000000" stroke="none" 
	d="
M287.131897,71.134789 
	C286.868073,71.168533 286.384949,70.985519 286.183105,70.648483 
	C286.613770,70.635651 286.763184,70.776840 287.131897,71.134789 
z"/>
</svg>